<svg xmlns="http://www.w3.org/2000/svg" version="1.0" width="48.000000" height="48.000000" preserveAspectRatio="xMidYMid meet"><rect id="backgroundrect" width="100%" height="100%" x="0" y="0" fill="none" stroke="none"/>
<g transform="translate(0,48) scale(0.10000000149011612,-0.10000000149011612) " fill="#eb1a1a" stroke="none" id="svg_1" class="selected" fill-opacity="1">
<path d="M266 390 c-42 -13 -85 -58 -92 -97 -3 -18 -16 -40 -27 -48 -18 -12 -18 -15 -4 -20 30 -12 51 -1 58 32 15 74 62 109 134 99 44 -5 95 -52 95 -86 0 -14 7 -20 21 -20 18 0 20 4 15 28 -21 84 -116 138 -200 112z" id="svg_2" fill="#eb1a1a" fill-opacity="1"/>
<path d="M268 323 c-28 -18 -48 -52 -48 -82 0 -23 -31 -51 -58 -51 -11 0 -29 11 -40 25 -24 30 -52 34 -45 6 9 -35 49 -63 89 -63 30 0 44 7 66 31 15 17 28 42 28 55 0 26 28 56 54 56 26 0 56 -19 56 -35 0 -8 9 -15 20 -15 23 0 24 1 8 35 -13 28 -55 55 -85 55 -10 0 -30 -8 -45 -17z" id="svg_3" fill="#eb1a1a" fill-opacity="1"/>
<path d="M292 268 c-7 -7 -12 -21 -12 -32 0 -40 -37 -84 -79 -97 -60 -18 -110 3 -136 58 -12 26 -27 42 -38 43 -14 0 -17 -5 -12 -22 23 -76 77 -120 149 -120 77 0 135 47 151 124 4 16 13 28 22 28 13 0 13 3 3 15 -15 18 -32 19 -48 3z" id="svg_4" fill="#eb1a1a" fill-opacity="1"/>
</g></svg>